<?xml version="1.0" encoding="UTF-8"?>
<svg version="1.1" xmlns="http://www.w3.org/2000/svg" width="1024" height="1024">
<path d="M0 0 C337.92 0 675.84 0 1024 0 C1024 337.92 1024 675.84 1024 1024 C686.08 1024 348.16 1024 0 1024 C0 686.08 0 348.16 0 0 Z " fill="#FAFCFC" transform="translate(0,0)"/>
<path d="M0 0 C3.70835324 14.91484267 6.30080538 29.72629297 8 45 C5.49677775 43.81482259 3.62114507 42.69506799 1.4375 40.9375 C-0.92026019 38.83615651 -0.92026019 38.83615651 -4 38 C-4.0825 38.639375 -4.165 39.27875 -4.25 39.9375 C-8.51198644 57.34061131 -21.10217259 74.09927282 -32 88 C-32.70125 88.92425781 -33.4025 89.84851563 -34.125 90.80078125 C-57.87148999 121.15850993 -89.98756414 139.56998515 -127 149 C-127.70656738 149.18079102 -128.41313477 149.36158203 -129.14111328 149.54785156 C-140.83438729 152.34933612 -152.73349459 152.28077643 -164.6875 152.3125 C-165.47228729 152.31626648 -166.25707458 152.32003296 -167.06564331 152.32391357 C-180.86189608 152.35743068 -194.53394341 151.54108409 -207.9375 148 C-208.62005859 147.835 -209.30261719 147.67 -210.00585938 147.5 C-211.69004742 147.07013745 -213.34911502 146.54392092 -215 146 C-215.33 145.34 -215.66 144.68 -216 144 C-215.28714844 144.13277344 -214.57429688 144.26554688 -213.83984375 144.40234375 C-212.88207031 144.57894531 -211.92429687 144.75554687 -210.9375 144.9375 C-209.99777344 145.11152344 -209.05804688 145.28554688 -208.08984375 145.46484375 C-201.92605404 146.53240278 -195.92835422 147.17375539 -189.671875 147.23828125 C-188.88946442 147.2480751 -188.10705383 147.25786896 -187.30093384 147.26795959 C-164.95961941 147.71451088 -164.95961941 147.71451088 -143.11621094 143.63720703 C-140.79139206 142.93718658 -138.45139433 142.32539756 -136.1015625 141.71484375 C-118.13661077 136.88349768 -101.96088344 129.03427284 -87 118 C-86.07316406 117.31679688 -85.14632812 116.63359375 -84.19140625 115.9296875 C-71.34099087 105.88612362 -59.9022337 93.82464269 -50.25146484 80.70019531 C-49.00267559 79.00363496 -47.73112897 77.32604025 -46.45703125 75.6484375 C-37.03513439 63.05196868 -29.87312256 49.10798842 -23 35 C-27.62 35.33 -32.24 35.66 -37 36 C-32.89672745 31.11557843 -28.6460544 26.48648251 -24.140625 21.97265625 C-23.19494659 21.02198524 -23.19494659 21.02198524 -22.23016357 20.05210876 C-20.91044432 18.72736655 -19.58940388 17.4039393 -18.26708984 16.08178711 C-16.23636561 14.04885076 -14.21380259 12.00801416 -12.19140625 9.96679688 C-10.90413459 8.6765955 -9.61639124 7.38686454 -8.328125 6.09765625 C-7.7229303 5.48527603 -7.1177356 4.87289581 -6.49420166 4.24195862 C-2.2288546 0 -2.2288546 0 0 0 Z " fill="#1F73BC" transform="translate(514,424)"/>
<path d="M0 0 C14 0 14 0 18.078125 3.48046875 C19.18164144 5.01731969 20.23795901 6.58892801 21.25 8.1875 C22.11383301 9.41956177 22.11383301 9.41956177 22.99511719 10.67651367 C24.15472225 12.33058028 25.29741257 13.9966496 26.421875 15.67480469 C28.56394456 18.83091089 30.88982326 21.81842841 33.25 24.8125 C35.29361488 27.47292733 37.33611843 30.13420053 39.37744141 32.79638672 C40.31807593 34.02292251 41.25898893 35.24924478 42.20019531 36.4753418 C43.08952161 37.63385665 43.97822218 38.7928522 44.86621094 39.95239258 C46.82468981 42.56884697 46.82468981 42.56884697 49 45 C49.33 30.15 49.66 15.3 50 0 C54.95 0 59.9 0 65 0 C65 23.76 65 47.52 65 72 C50 72 50 72 46.1484375 68.87890625 C45.17377513 67.47361396 44.25049578 66.03162229 43.375 64.5625 C42.31777969 62.99907037 41.25914328 61.43659757 40.19921875 59.875 C39.67634277 59.06804688 39.1534668 58.26109375 38.61474609 57.4296875 C35.99820171 53.49260711 33.08836026 49.79211698 30.1875 46.0625 C29.18058859 44.7411909 28.17407081 43.41958173 27.16796875 42.09765625 C23.5011421 37.35474483 19.74508856 32.68136071 16 28 C15.67 42.85 15.34 57.7 15 73 C10.05 73 5.1 73 0 73 C0 48.91 0 24.82 0 0 Z " fill="#143454" transform="translate(181,464)"/>
<path d="M0 0 C5.28 0 10.56 0 16 0 C21.30578555 10.40485218 26.17473459 20.93515635 30.875 31.625 C32.2774751 34.80390284 33.6817271 37.98201965 35.0859375 41.16015625 C35.59510712 42.31399055 35.59510712 42.31399055 36.11456299 43.49113464 C38.06287187 47.90100732 40.03470695 52.2988091 42.0390625 56.68359375 C42.67739014 58.08134033 42.67739014 58.08134033 43.32861328 59.50732422 C44.08543193 61.15819208 44.84653064 62.80710753 45.61279297 64.45361328 C48 69.67124697 48 69.67124697 48 73 C42.72 73 37.44 73 32 73 C26 61.2 26 61.2 26 57 C14.45 57 2.9 57 -9 57 C-9.99 59.97 -10.98 62.94 -12 66 C-12.99 68.31 -13.98 70.62 -15 73 C-20.28 73 -25.56 73 -31 73 C-30.16924175 68.84620874 -29.24471953 66.00085592 -27.515625 62.22265625 C-26.99863037 61.08344727 -26.48163574 59.94423828 -25.94897461 58.77050781 C-25.6722995 58.16678345 -25.39562439 57.56305908 -25.11056519 56.94104004 C-23.63131169 53.71195644 -22.16964313 50.47492856 -20.70703125 47.23828125 C-20.4031398 46.56666962 -20.09924835 45.89505798 -19.78614807 45.20309448 C-16.4230323 37.75352187 -13.17415305 30.2551921 -9.9375 22.75 C-9.66659546 22.1218338 -9.39569092 21.4936676 -9.11657715 20.84646606 C-8.85219849 20.23334564 -8.58781982 19.62022522 -8.31542969 18.98852539 C-5.57883223 12.64265995 -2.8224429 6.30819372 0 0 Z " fill="#1C72BC" transform="translate(663,464)"/>
<path d="M0 0 C5.28 0 10.56 0 16 0 C16 9.9 16 19.8 16 30 C26.89 30 37.78 30 49 30 C49 20.1 49 10.2 49 0 C54.28 0 59.56 0 65 0 C65 24.09 65 48.18 65 73 C59.39 73 53.78 73 48 73 C48 63.43 48 53.86 48 44 C37.44 44 26.88 44 16 44 C16 53.57 16 63.14 16 73 C10.72 73 5.44 73 0 73 C0 48.91 0 24.82 0 0 Z " fill="#2276BE" transform="translate(787,464)"/>
<path d="M0 0 C18.48 0 36.96 0 56 0 C56 4.62 56 9.24 56 14 C43.13 14 30.26 14 17 14 C17 19.28 17 24.56 17 30 C28.22 30 39.44 30 51 30 C51 34.29 51 38.58 51 43 C39.78 43 28.56 43 17 43 C17 48.28 17 53.56 17 59 C30.2 59 43.4 59 57 59 C57 63.62 57 68.24 57 73 C38.19 73 19.38 73 0 73 C0 48.91 0 24.82 0 0 Z " fill="#1E3D5B" transform="translate(262,464)"/>
<path d="M0 0 C18.48 0 36.96 0 56 0 C56 4.62 56 9.24 56 14 C42.8 14 29.6 14 16 14 C16 19.28 16 24.56 16 30 C27.55 30 39.1 30 51 30 C51 34.29 51 38.58 51 43 C39.78 43 28.56 43 17 43 C17 48.28 17 53.56 17 59 C30.2 59 43.4 59 57 59 C57 63.62 57 68.24 57 73 C38.19 73 19.38 73 0 73 C-0.28967473 56.5197359 -0.28967473 56.5197359 -0.40429688 49.4765625 C-0.48243638 44.67702278 -0.56175301 39.87752334 -0.64819336 35.078125 C-0.7178342 31.20730519 -0.78210082 27.33642954 -0.84269524 23.46545792 C-0.86670837 21.99110825 -0.89263408 20.51678841 -0.92053413 19.04250717 C-0.95938126 16.97223315 -0.99133023 14.90195597 -1.02172852 12.83154297 C-1.04171402 11.65461884 -1.06169952 10.4776947 -1.08229065 9.2651062 C-1 6 -1 6 0 0 Z " fill="#2174BA" transform="translate(571,464)"/>
<path d="M0 0 C15.78914075 -1.67000527 15.78914075 -1.67000527 20.73046875 2.0625 C22.78295636 4.94663429 24.40497427 7.84099526 26 11 C27.2718756 13.074763 28.56279236 15.13800734 29.875 17.1875 C30.42929687 18.10917969 30.98359375 19.03085937 31.5546875 19.98046875 C32.03164063 20.64691406 32.50859375 21.31335938 33 22 C33.66 22 34.32 22 35 22 C36.32049006 19.88765163 36.32049006 19.88765163 37.625 17.1875 C46.20025107 1.20505531 46.20025107 1.20505531 51.42089844 -1.04199219 C56.75387941 -1.93255226 61.76680801 -1.1747982 67 0 C65.23875385 3.8932174 62.813416 7.31017974 60.39453125 10.8125 C59.48440506 12.14801452 58.57491879 13.48396533 57.66601562 14.8203125 C56.23658597 16.91802453 54.80360435 19.0128614 53.35961914 21.10058594 C51.96375979 23.12186434 50.58421275 25.15346624 49.20703125 27.1875 C48.77066849 27.81052002 48.33430573 28.43354004 47.88471985 29.07543945 C45.64639865 32.31987261 45.64639865 32.31987261 45.02758789 36.11108398 C46.2953958 38.573808 47.74512762 40.77609416 49.3515625 43.03515625 C50.03863281 44.01033203 50.72570312 44.98550781 51.43359375 45.99023438 C52.15675781 47.00408203 52.87992187 48.01792969 53.625 49.0625 C58.96197066 56.5863509 64.12382466 64.16789602 69 72 C52.8421095 74.07110295 52.8421095 74.07110295 48.31347656 70.77099609 C45.47093778 67.50542424 43.64676418 63.70887843 41.86132812 59.79150391 C40.64330971 57.25810846 39.06730891 55.03397532 37.4375 52.75 C35 49.23577236 35 49.23577236 35 47 C34.34 47 33.68 47 33 47 C32.62101562 48.07507813 32.62101562 48.07507813 32.234375 49.171875 C30.43474706 53.29507319 27.76856321 56.57476841 25.0390625 60.12890625 C22.95415352 62.86994639 22.95415352 62.86994639 21.7734375 65.71484375 C20.42707582 68.61364288 19.6157401 70.1199368 17 72 C11.07473037 73.11098805 4.96400094 72.50637744 -1 72 C2.06567205 65.86865589 5.74507713 60.50602616 9.875 55.0625 C10.39884277 54.36922607 10.92268555 53.67595215 11.46240234 52.96166992 C13.75728892 49.9321768 16.06550738 46.9162016 18.40625 43.921875 C19.0559375 43.06078125 19.705625 42.1996875 20.375 41.3125 C20.93960937 40.58675781 21.50421875 39.86101562 22.0859375 39.11328125 C23.24147973 37.01213878 23.24147973 37.01213878 22.4765625 34.69140625 C20.54051139 31.16246653 18.32301142 27.90870631 16 24.625 C15.01344859 23.21024471 14.02779403 21.79486366 13.04296875 20.37890625 C12.54071777 19.65848145 12.0384668 18.93805664 11.52099609 18.19580078 C9.0823679 14.6752515 6.69244538 11.12289137 4.3125 7.5625 C3.87873047 6.91812988 3.44496094 6.27375977 2.99804688 5.60986328 C0 1.11890644 0 1.11890644 0 0 Z " fill="#143555" transform="translate(326,464)"/>
<path d="M0 0 C3.125 2.3125 3.125 2.3125 5 4 C4.41604794 7.51149841 3.16720355 9.29031758 0.6875 11.8125 C0.09324219 12.43769531 -0.50101563 13.06289063 -1.11328125 13.70703125 C-3 15 -3 15 -4.9765625 14.85546875 C-7.18101265 13.92347149 -9.06770557 12.82217588 -11.0625 11.5 C-16.89575078 7.64848701 -22.12478507 7.34073282 -29 8 C-35.99166711 9.98057464 -40.40201978 14.80394947 -44.13671875 20.8359375 C-46.35622255 26.3997615 -45.82782802 33.2578197 -44.125 38.8984375 C-41.47674848 44.70019905 -38.50857357 47.83767073 -33 51 C-26.69265413 53.10244862 -19.08165705 53.35862258 -12.9609375 50.66015625 C-11.26789797 49.59888516 -9.60521219 48.48647339 -7.98828125 47.3125 C-6 46 -6 46 -3 46 C-0.95703125 47.75 -0.95703125 47.75 1.1875 50 C2.26064453 51.11375 2.26064453 51.11375 3.35546875 52.25 C3.89816406 52.8275 4.44085937 53.405 5 54 C3.50115053 57.97940152 1.25287411 59.43463485 -2.3125 61.625 C-3.72982422 62.51058594 -3.72982422 62.51058594 -5.17578125 63.4140625 C-13.89990882 68.31308849 -24.13071156 69.61576005 -33.90625 67.31640625 C-45.32524217 63.45126985 -53.58301291 57.23284575 -59.3203125 46.5390625 C-63.17106362 37.57192877 -63.59099769 26.40027943 -60.875 17 C-56.77576993 6.97118597 -48.70596336 -0.68498122 -38.875 -4.9375 C-25.13995376 -9.78704014 -12.29279334 -7.06361195 0 0 Z " fill="#1D73BD" transform="translate(772,470)"/>
<path d="M0 0 C8.81623102 -0.62183448 15.698201 -0.32903226 23 5 C27.89934994 9.51687281 31.51110166 13.98080083 32.3359375 20.76171875 C32.44062067 28.60248856 31.74676567 35.90275737 26.24609375 41.91796875 C23.94441155 43.94095039 21.74252288 45.62873856 19 47 C20.57751855 51.88279552 23.42108995 55.48230084 26.5 59.5 C32.48453608 67.30927835 32.48453608 67.30927835 34 72 C21.59319055 73.29976099 21.59319055 73.29976099 16 72 C12.33825169 68.92885625 10.85869665 65.33510386 9 61 C8.00135256 59.26616739 6.96231045 57.55465122 5.875 55.875 C5.43929687 55.15054688 5.00359375 54.42609375 4.5546875 53.6796875 C2.79678153 51.45112655 2.79678153 51.45112655 -2 51 C-2 57.6 -2 64.2 -2 71 C-6.95 71 -11.9 71 -17 71 C-17 60.11 -17 49.22 -17 38 C-5.875 37.6875 -5.875 37.6875 -2.40185547 37.61206055 C4.08209041 37.3784202 9.08287863 36.97274445 13.84375 32.12109375 C15.95284965 28.25203595 15.75905355 24.26450086 15 20 C12.80977082 17.17575712 11.16982793 15.58491397 8 14 C6.04225931 13.84621148 4.07982648 13.75028537 2.1171875 13.68359375 C0.95058594 13.64169922 -0.21601562 13.59980469 -1.41796875 13.55664062 C-2.64128906 13.51732422 -3.86460937 13.47800781 -5.125 13.4375 C-6.35605469 13.39431641 -7.58710937 13.35113281 -8.85546875 13.30664062 C-11.90352853 13.20031296 -14.9516719 13.09828219 -18 13 C-17.31620454 9.04991941 -16.21156817 6.36542982 -14 3 C-10.76108816 4.04788324 -8.42363434 5.3579313 -5.875 7.5625 C-3.19395804 10.14217763 -3.19395804 10.14217763 0 11 C0 7.37 0 3.74 0 0 Z " fill="#186DB8" transform="translate(526,465)"/>
<path d="M0 0 C20.46 0 40.92 0 62 0 C62 4.62 62 9.24 62 14 C54.41 14 46.82 14 39 14 C39.0928125 17.60035156 39.185625 21.20070313 39.28125 24.91015625 C39.34369142 28.40838994 39.39223714 31.90656089 39.43945312 35.4050293 C39.47961494 37.83109451 39.53415755 40.25696693 39.60351562 42.68237305 C39.70088366 46.17545144 39.74600092 49.66596566 39.78125 53.16015625 C39.82254028 54.23959 39.86383057 55.31902374 39.90637207 56.4311676 C39.90887987 60.66666119 39.87056304 63.74482676 37.41186523 67.2897644 C32.60771914 71.92064645 31.25591363 72 24 72 C24 52.86 24 33.72 24 14 C16.41 14 8.82 14 1 14 C0.67 13.67 0.34 13.34 0 13 C0 8.71 0 4.42 0 0 Z " fill="#143654" transform="translate(395,464)"/>
<path d="M0 0 C3.83084349 2.61193874 6.65161815 5.67823629 8.75 9.875 C9.30769904 15.83808973 9.25156448 20.80376868 5.75 25.875 C1.62559561 29.78233047 -1.98911204 31.62379023 -7.625 32.25 C-13.3373072 31.65907167 -16.80156083 29.47590645 -20.625 25.25 C-24.15735392 20.08732888 -23.93897471 14.99747978 -23.25 8.875 C-21.57607383 4.73347578 -19.10716538 2.47891197 -15.5 -0.0625 C-10.06699685 -1.83867411 -5.4083122 -1.87210807 0 0 Z " fill="#2277BD" transform="translate(554.25,412.125)"/>
<path d="M0 0 C0.66 0 1.32 0 2 0 C3.67239921 3.95593578 5.33694382 7.9151284 7 11.875 C7.47695313 13.00292969 7.95390625 14.13085938 8.4453125 15.29296875 C9.12207031 16.90751953 9.12207031 16.90751953 9.8125 18.5546875 C10.23144531 19.54968262 10.65039062 20.54467773 11.08203125 21.56982422 C12 24 12 24 12 26 C4.74 26 -2.52 26 -10 26 C-6.7 17.42 -3.4 8.84 0 0 Z " fill="#EDF4F7" transform="translate(670,482)"/>
<path d="M0 0 C1.15048828 0.33837891 1.15048828 0.33837891 2.32421875 0.68359375 C3.10410156 0.93238281 3.88398437 1.18117188 4.6875 1.4375 C5.47511719 1.68371094 6.26273438 1.92992187 7.07421875 2.18359375 C9 3 9 3 10 5 C10.31034483 13.37931034 10.31034483 13.37931034 9 16 C5.32115375 18.28905989 3.38448044 19 -1 19 C-3.97477985 15.95603922 -6.49822465 13.34871974 -7 9 C-7.66 9 -8.32 9 -9 9 C-9 7.35 -9 5.7 -9 4 C-9.99 4 -10.98 4 -12 4 C-5.27507864 -1.63439357 -5.27507864 -1.63439357 0 0 Z " fill="#3A8FCA" transform="translate(546,412)"/>
<path d="M0 0 C0 0.66 0 1.32 0 2 C0.845625 2 1.69125 2 2.5625 2 C8.48880215 3.72401517 11.3482878 8.74266 14.875 13.5625 C17.32259679 18.86562638 17.34413995 22.76638596 15.375 28.1875 C13.58270135 32.22017195 12.02624855 34.89101266 8 37 C5 37.125 5 37.125 2 37 C1.13375 37.350625 0.2675 37.70125 -0.625 38.0625 C-3.3707513 39.1463492 -4.29397682 39.04749284 -7 38 C-8.3479743 37.36345658 -9.68596724 36.70394612 -11 36 C-10.67 35.34 -10.34 34.68 -10 34 C-9.01 34.33 -8.02 34.66 -7 35 C-1.00523764 35.5877218 3.06923063 34.26120863 8 31 C12.06918574 26.66828614 12.34346052 22.22163083 12.28515625 16.5078125 C11.75921499 11.88241127 9.32575738 9.16505952 5.9375 6.1875 C1.52857294 3.48525438 -2.98708448 3.40044864 -8 4 C-12.88204514 5.72087415 -15.73347736 8.36725432 -18 13 C-19.11254372 20.35682063 -18.37252782 25.98777425 -14 32 C-19.44981922 29.45675103 -20.74491664 26.53520462 -23 21 C-23.33 21 -23.66 21 -24 21 C-24.25 18.75 -24.25 18.75 -24 16 C-22.71034824 14.62437146 -21.37310707 13.29233607 -20 12 C-18.74563813 9.36777038 -18.74563813 9.36777038 -18 7 C-17.34 7 -16.68 7 -16 7 C-16 6.34 -16 5.68 -16 5 C-14.390625 3.52734375 -14.390625 3.52734375 -12.25 1.9375 C-11.55390625 1.41027344 -10.8578125 0.88304687 -10.140625 0.33984375 C-6.18053174 -2.13882776 -4.02301824 -2.44254679 0 0 Z " fill="#D6E7F1" transform="translate(550,408)"/>
<path d="M0 0 C7.59 0 15.18 0 23 0 C23 0.33 23 0.66 23 1 C16.4 1.33 9.8 1.66 3 2 C2.67 18.17 2.34 34.34 2 51 C1.01 51 0.02 51 -1 51 C-0.67 34.17 -0.34 17.34 0 0 Z " fill="#C9DFE7" transform="translate(434,478)"/>
<path d="M0 0 C0.66 0.33 1.32 0.66 2 1 C2 3.64 2 6.28 2 9 C2.55171875 8.67257812 3.1034375 8.34515625 3.671875 8.0078125 C6.38780923 6.83212285 8.30551759 6.79751362 11.25 6.875 C12.14203125 6.89304687 13.0340625 6.91109375 13.953125 6.9296875 C14.96632813 6.96449219 14.96632813 6.96449219 16 7 C16.33 7.66 16.66 8.32 17 9 C13.37 9 9.74 9 6 9 C6 12.63 6 16.26 6 20 C1.96504633 18.99126158 0.40388179 17.9884338 -2.75 15.4375 C-3.54921875 14.79683594 -4.3484375 14.15617187 -5.171875 13.49609375 C-5.77515625 13.00238281 -6.3784375 12.50867188 -7 12 C-6.34 11.67 -5.68 11.34 -5 11 C-5 10.34 -5 9.68 -5 9 C-2 10.5 -2 10.5 1 12 C0.67 8.04 0.34 4.08 0 0 Z " fill="#9AC8E1" transform="translate(520,456)"/>
<path d="M0 0 C3.29636389 1.06647067 5.18747786 2.16664698 7.8125 4.5 C11.24072459 7.53438156 14.55282239 8.15656976 19 9 C19 9.33 19 9.66 19 10 C11.41 10 3.82 10 -4 10 C-3.12686261 5.63431305 -2.34897511 3.57452735 0 0 Z " fill="#337EC1" transform="translate(512,468)"/>
<path d="M0 0 C1.36623674 2.73247348 1.128426 4.98198902 1 8 C0 9 0 9 -3.4375 9.25 C-4.613125 9.1675 -5.78875 9.085 -7 9 C-9.29013653 5.5647952 -9.17842973 4.014669 -9 0 C-5.88173308 -1.55913346 -3.32926126 -0.66585225 0 0 Z " fill="#78B1D5" transform="translate(551,417)"/>
<path d="M0 0 C-0.556875 0.391875 -1.11375 0.78375 -1.6875 1.1875 C-4.89599544 3.7022667 -8.15661057 6.31322114 -10 10 C-10.69336032 17.49056481 -10.47291625 22.84974015 -6 29 C-11.44981922 26.45675103 -12.74491664 23.53520462 -15 18 C-15.33 18 -15.66 18 -16 18 C-16.25 15.75 -16.25 15.75 -16 13 C-14.71034824 11.62437146 -13.37310707 10.29233607 -12 9 C-10.74563813 6.36777038 -10.74563813 6.36777038 -10 4 C-9.34 4 -8.68 4 -8 4 C-8 3.34 -8 2.68 -8 2 C-3.61016949 -1.20338983 -3.61016949 -1.20338983 0 0 Z " fill="#D2E6F0" transform="translate(542,411)"/>
<path d="M0 0 C0.71285156 0.13277344 1.42570312 0.26554688 2.16015625 0.40234375 C3.11792969 0.57894531 4.07570313 0.75554688 5.0625 0.9375 C6.47208984 1.19853516 6.47208984 1.19853516 7.91015625 1.46484375 C13.70706862 2.46886018 19.36163923 3.13962006 25.24609375 3.31640625 C26.23005882 3.3475779 26.23005882 3.3475779 27.23390198 3.37937927 C29.30167546 3.44405938 31.36956101 3.50337466 33.4375 3.5625 C34.85092242 3.60576307 36.26433407 3.64937965 37.67773438 3.69335938 C41.11837471 3.79965516 44.55913692 3.90114472 48 4 C48 4.33 48 4.66 48 5 C47.03175293 5.03758423 47.03175293 5.03758423 46.04394531 5.07592773 C43.11244106 5.19214433 40.18123783 5.31475442 37.25 5.4375 C36.23421875 5.47681641 35.2184375 5.51613281 34.171875 5.55664062 C33.1921875 5.59853516 32.2125 5.64042969 31.203125 5.68359375 C30.30239258 5.72025146 29.40166016 5.75690918 28.47363281 5.79467773 C26.04938385 5.91495588 26.04938385 5.91495588 23.98413086 6.57763672 C21.40901021 7.1258044 19.60619556 6.67968361 17.05078125 6.07421875 C16.12072266 5.85443359 15.19066406 5.63464844 14.23242188 5.40820312 C13.26884766 5.17037109 12.30527344 4.93253906 11.3125 4.6875 C10.33732422 4.46126953 9.36214844 4.23503906 8.35742188 4.00195312 C2.98659114 2.70503018 2.98659114 2.70503018 1 2 C0.67 1.34 0.34 0.68 0 0 Z " fill="#5E9CCE" transform="translate(298,568)"/>
<path d="M0 0 C1.97265625 0.265625 1.97265625 0.265625 4.97265625 2.265625 C5.24293999 5.98202639 5.15358925 8.722826 3.97265625 12.265625 C0.08917141 13.56011995 -2.93431711 13.39765812 -7.02734375 13.265625 C-8.69295774 11.60001101 -8.1985032 9.60599795 -8.21484375 7.328125 C-8.22902344 6.43222656 -8.24320313 5.53632813 -8.2578125 4.61328125 C-7.75263323 -0.53269738 -4.38258428 0.03276699 0 0 Z M-7.02734375 2.265625 C-7.26162688 7.0553571 -7.26162688 7.0553571 -5.02734375 11.265625 C-1.48546544 11.59901096 -1.48546544 11.59901096 1.97265625 11.265625 C3.29233803 10.16034058 3.29233803 10.16034058 3.22265625 7.390625 C3.22272165 4.33831707 3.22272165 4.33831707 1.78515625 2.390625 C-1.21855767 0.52625084 -3.9172392 0.71057273 -7.02734375 2.265625 Z " fill="#509CCF" transform="translate(549.02734375,414.734375)"/>
<path d="M0 0 C4.66630609 0.2372698 7.15076799 0.42806824 11.0625 3.0625 C13.07928252 6.12020254 13.29455149 6.74062084 13 10.1875 C12 14 12 14 9 16 C9 12.04 9 8.08 9 4 C5.7 3.34 2.4 2.68 -1 2 C-0.67 1.34 -0.34 0.68 0 0 Z " fill="#2882C5" transform="translate(546,411)"/>
<path d="M0 0 C0.66 0 1.32 0 2 0 C1.98839844 0.61488281 1.97679687 1.22976563 1.96484375 1.86328125 C1.95582031 2.67152344 1.94679687 3.47976563 1.9375 4.3125 C1.92589844 5.11300781 1.91429687 5.91351563 1.90234375 6.73828125 C1.90342145 9.16861334 1.90342145 9.16861334 3 12 C3.203125 14.19140625 3.203125 14.19140625 3.25 16.5625 C3.27578125 17.34753906 3.3015625 18.13257813 3.328125 18.94140625 C3.16570312 19.96041016 3.16570312 19.96041016 3 21 C2.01 21.66 1.02 22.32 0 23 C0 15.41 0 7.82 0 0 Z " fill="#0E2D4B" transform="translate(181,503)"/>
<path d="M0 0 C0.99 0.99 1.98 1.98 3 3 C2.67 3.33 2.34 3.66 2 4 C1.8396444 7.02807044 1.74039552 10.03585454 1.68359375 13.06640625 C1.66281265 13.97502914 1.64203156 14.88365204 1.62062073 15.81980896 C1.55502328 18.73395946 1.4961932 21.64820304 1.4375 24.5625 C1.39432446 26.53321291 1.35071049 28.50391626 1.30664062 30.47460938 C1.19933157 35.31630988 1.09809325 40.15810437 1 45 C0.67 45 0.34 45 0 45 C0 30.15 0 15.3 0 0 Z " fill="#DADFDE" transform="translate(196,491)"/>
<path d="M0 0 C1.65 0 3.3 0 5 0 C5.66 0.99 6.32 1.98 7 3 C5.68 2.67 4.36 2.34 3 2 C2.0672582 6.099361 1.71174738 10.12043288 1.4375 14.3125 C1.35371094 15.56675781 1.26992188 16.82101562 1.18359375 18.11328125 C1.12300781 19.06589844 1.06242188 20.01851562 1 21 C0.67 21 0.34 21 0 21 C0 14.07 0 7.14 0 0 Z " fill="#BBDFEC" transform="translate(524,516)"/>
<path d="M0 0 C4.62 0 9.24 0 14 0 C14 0.66 14 1.32 14 2 C15.32 2.33 16.64 2.66 18 3 C11.71739294 3.23268915 6.11980533 2.40454548 0 1 C0 0.67 0 0.34 0 0 Z " fill="#1C73BE" transform="translate(321,573)"/>
<path d="M0 0 C1.65 0.33 3.3 0.66 5 1 C5 2.32 5 3.64 5 5 C3.02 5 1.04 5 -1 5 C-0.67 3.35 -0.34 1.7 0 0 Z " fill="#BBD2DE" transform="translate(545,418)"/>
<path d="M0 0 C4.29 0.66 8.58 1.32 13 2 C10 5 10 5 8.02734375 5.21484375 C7.33769531 5.12332031 6.64804687 5.03179687 5.9375 4.9375 C5.24527344 4.86402344 4.55304687 4.79054688 3.83984375 4.71484375 C2 4 2 4 0 0 Z " fill="#DBEAF3" transform="translate(539,442)"/>
<path d="M0 0 C0.86625 0.3403125 0.86625 0.3403125 1.75 0.6875 C0.76 2.9975 -0.23 5.3075 -1.25 7.6875 C-1.91 7.6875 -2.57 7.6875 -3.25 7.6875 C-3.25 6.0375 -3.25 4.3875 -3.25 2.6875 C-4.24 2.6875 -5.23 2.6875 -6.25 2.6875 C-2.80384615 -0.38942308 -2.80384615 -0.38942308 0 0 Z " fill="#3188C9" transform="translate(540.25,413.3125)"/>
<path d="M0 0 C0.33 0 0.66 0 1 0 C1.02578125 0.56847656 1.0515625 1.13695312 1.078125 1.72265625 C1.50434233 7.52502403 2.79821783 11.1456851 6 16 C3.53199953 14.84826645 1.95216435 13.95216435 0 12 C-0.1953125 9.1796875 -0.1953125 9.1796875 -0.125 5.875 C-0.10695313 4.77929688 -0.08890625 3.68359375 -0.0703125 2.5546875 C-0.04710937 1.71164062 -0.02390625 0.86859375 0 0 Z " fill="#B5D1E5" transform="translate(530,424)"/>
<path d="M0 0 C3.875 1.75 3.875 1.75 5 4 C4.34 4 3.68 4 3 4 C2.67 4.66 2.34 5.32 2 6 C0.68 4.68 -0.64 3.36 -2 2 C-1.34 2 -0.68 2 0 2 C0 1.34 0 0.68 0 0 Z " fill="#AFD5E7" transform="translate(515,465)"/>
<path d="M0 0 C0.66 0 1.32 0 2 0 C2 2.97 2 5.94 2 9 C-0.57781906 6.42218094 -0.62129616 4.5598161 -1 1 C-0.67 0.67 -0.34 0.34 0 0 Z " fill="#DCECF3" transform="translate(528,423)"/>
</svg>
